<mxfile>
    <diagram id="yo39sZVXR0ZW2GF7_8RC" name="right_right">
        <mxGraphModel dx="912" dy="402" grid="1" gridSize="10" guides="1" tooltips="1" connect="1" arrows="1" fold="1" page="1" pageScale="1" pageWidth="850" pageHeight="1100" math="0" shadow="0">
            <root>
                <mxCell id="0"/>
                <mxCell id="1" parent="0"/>
                <mxCell id="25" style="edgeStyle=orthogonalEdgeStyle;rounded=0;orthogonalLoop=1;jettySize=auto;html=1;exitX=1;exitY=1;exitDx=0;exitDy=0;entryX=0;entryY=0;entryDx=0;entryDy=0;curved=1;" parent="1" source="2" target="3" edge="1">
                    <mxGeometry relative="1" as="geometry"/>
                </mxCell>
                <mxCell id="2" value="31" style="ellipse;whiteSpace=wrap;html=1;aspect=fixed;" parent="1" vertex="1">
                    <mxGeometry x="190" y="100" width="80" height="80" as="geometry"/>
                </mxCell>
                <mxCell id="26" style="edgeStyle=orthogonalEdgeStyle;rounded=0;orthogonalLoop=1;jettySize=auto;html=1;exitX=1;exitY=1;exitDx=0;exitDy=0;entryX=0;entryY=0;entryDx=0;entryDy=0;curved=1;" parent="1" source="3" target="4" edge="1">
                    <mxGeometry relative="1" as="geometry"/>
                </mxCell>
                <mxCell id="3" value="38" style="ellipse;whiteSpace=wrap;html=1;aspect=fixed;" parent="1" vertex="1">
                    <mxGeometry x="270" y="200" width="80" height="80" as="geometry"/>
                </mxCell>
                <mxCell id="4" value="50" style="ellipse;whiteSpace=wrap;html=1;aspect=fixed;" parent="1" vertex="1">
                    <mxGeometry x="350" y="320" width="80" height="80" as="geometry"/>
                </mxCell>
                <mxCell id="5" value="3" style="text;html=1;strokeColor=none;fillColor=none;align=center;verticalAlign=middle;whiteSpace=wrap;rounded=0;" parent="1" vertex="1">
                    <mxGeometry x="250" y="70" width="40" height="20" as="geometry"/>
                </mxCell>
                <mxCell id="6" value="2" style="text;html=1;strokeColor=none;fillColor=none;align=center;verticalAlign=middle;whiteSpace=wrap;rounded=0;" parent="1" vertex="1">
                    <mxGeometry x="330" y="170" width="40" height="20" as="geometry"/>
                </mxCell>
                <mxCell id="7" value="1" style="text;html=1;strokeColor=none;fillColor=none;align=center;verticalAlign=middle;whiteSpace=wrap;rounded=0;" parent="1" vertex="1">
                    <mxGeometry x="400" y="290" width="40" height="20" as="geometry"/>
                </mxCell>
                <mxCell id="8" value="20" style="ellipse;whiteSpace=wrap;html=1;aspect=fixed;" parent="1" vertex="1">
                    <mxGeometry x="910" y="280" width="80" height="80" as="geometry"/>
                </mxCell>
                <mxCell id="30" style="edgeStyle=orthogonalEdgeStyle;rounded=0;orthogonalLoop=1;jettySize=auto;html=1;exitX=0;exitY=1;exitDx=0;exitDy=0;" parent="1" source="9" target="8" edge="1">
                    <mxGeometry relative="1" as="geometry"/>
                </mxCell>
                <mxCell id="31" style="edgeStyle=orthogonalEdgeStyle;rounded=0;orthogonalLoop=1;jettySize=auto;html=1;exitX=1;exitY=0.5;exitDx=0;exitDy=0;entryX=0.5;entryY=0;entryDx=0;entryDy=0;" parent="1" source="9" target="10" edge="1">
                    <mxGeometry relative="1" as="geometry"/>
                </mxCell>
                <mxCell id="9" value="31" style="ellipse;whiteSpace=wrap;html=1;aspect=fixed;" parent="1" vertex="1">
                    <mxGeometry x="1015" y="160" width="80" height="80" as="geometry"/>
                </mxCell>
                <mxCell id="10" value="38" style="ellipse;whiteSpace=wrap;html=1;aspect=fixed;" parent="1" vertex="1">
                    <mxGeometry x="1105" y="280" width="80" height="80" as="geometry"/>
                </mxCell>
                <mxCell id="11" value="1" style="text;html=1;strokeColor=none;fillColor=none;align=center;verticalAlign=middle;whiteSpace=wrap;rounded=0;" parent="1" vertex="1">
                    <mxGeometry x="970" y="250" width="40" height="20" as="geometry"/>
                </mxCell>
                <mxCell id="12" value="2" style="text;html=1;strokeColor=none;fillColor=none;align=center;verticalAlign=middle;whiteSpace=wrap;rounded=0;" parent="1" vertex="1">
                    <mxGeometry x="1075" y="130" width="40" height="20" as="geometry"/>
                </mxCell>
                <mxCell id="13" value="1" style="text;html=1;strokeColor=none;fillColor=none;align=center;verticalAlign=middle;whiteSpace=wrap;rounded=0;" parent="1" vertex="1">
                    <mxGeometry x="1155" y="250" width="40" height="20" as="geometry"/>
                </mxCell>
                <mxCell id="KGqAEk0XQEjgS2Rpxjzb-41" style="edgeStyle=orthogonalEdgeStyle;rounded=0;orthogonalLoop=1;jettySize=auto;html=1;exitX=1;exitY=1;exitDx=0;exitDy=0;entryX=0;entryY=0;entryDx=0;entryDy=0;" parent="1" source="19" target="20" edge="1">
                    <mxGeometry relative="1" as="geometry"/>
                </mxCell>
                <mxCell id="19" value="38" style="ellipse;whiteSpace=wrap;html=1;aspect=fixed;" parent="1" vertex="1">
                    <mxGeometry x="560" y="90" width="80" height="80" as="geometry"/>
                </mxCell>
                <mxCell id="KGqAEk0XQEjgS2Rpxjzb-42" style="edgeStyle=orthogonalEdgeStyle;rounded=0;orthogonalLoop=1;jettySize=auto;html=1;exitX=1;exitY=1;exitDx=0;exitDy=0;entryX=0;entryY=0;entryDx=0;entryDy=0;" parent="1" source="20" target="21" edge="1">
                    <mxGeometry relative="1" as="geometry"/>
                </mxCell>
                <mxCell id="20" value="31" style="ellipse;whiteSpace=wrap;html=1;aspect=fixed;" parent="1" vertex="1">
                    <mxGeometry x="640" y="190" width="80" height="80" as="geometry"/>
                </mxCell>
                <mxCell id="21" value="50" style="ellipse;whiteSpace=wrap;html=1;aspect=fixed;" parent="1" vertex="1">
                    <mxGeometry x="720" y="310" width="80" height="80" as="geometry"/>
                </mxCell>
                <mxCell id="22" value="2" style="text;html=1;strokeColor=none;fillColor=none;align=center;verticalAlign=middle;whiteSpace=wrap;rounded=0;" parent="1" vertex="1">
                    <mxGeometry x="620" y="60" width="40" height="20" as="geometry"/>
                </mxCell>
                <mxCell id="23" value="3" style="text;html=1;strokeColor=none;fillColor=none;align=center;verticalAlign=middle;whiteSpace=wrap;rounded=0;" parent="1" vertex="1">
                    <mxGeometry x="700" y="160" width="40" height="20" as="geometry"/>
                </mxCell>
                <mxCell id="24" value="1" style="text;html=1;strokeColor=none;fillColor=none;align=center;verticalAlign=middle;whiteSpace=wrap;rounded=0;" parent="1" vertex="1">
                    <mxGeometry x="770" y="280" width="40" height="20" as="geometry"/>
                </mxCell>
                <mxCell id="33" value="" style="endArrow=classic;html=1;" parent="1" edge="1">
                    <mxGeometry width="50" height="50" relative="1" as="geometry">
                        <mxPoint x="90" y="60" as="sourcePoint"/>
                        <mxPoint x="180" y="110" as="targetPoint"/>
                    </mxGeometry>
                </mxCell>
                <mxCell id="KGqAEk0XQEjgS2Rpxjzb-33" style="edgeStyle=orthogonalEdgeStyle;rounded=0;orthogonalLoop=1;jettySize=auto;html=1;exitX=1;exitY=0.5;exitDx=0;exitDy=0;entryX=0.5;entryY=0;entryDx=0;entryDy=0;" parent="1" source="KGqAEk0XQEjgS2Rpxjzb-35" target="KGqAEk0XQEjgS2Rpxjzb-37" edge="1">
                    <mxGeometry relative="1" as="geometry"/>
                </mxCell>
                <mxCell id="KGqAEk0XQEjgS2Rpxjzb-34" style="edgeStyle=orthogonalEdgeStyle;rounded=0;orthogonalLoop=1;jettySize=auto;html=1;exitX=0.5;exitY=1;exitDx=0;exitDy=0;entryX=0;entryY=0.5;entryDx=0;entryDy=0;" parent="1" source="KGqAEk0XQEjgS2Rpxjzb-35" target="KGqAEk0XQEjgS2Rpxjzb-36" edge="1">
                    <mxGeometry relative="1" as="geometry"/>
                </mxCell>
                <mxCell id="KGqAEk0XQEjgS2Rpxjzb-35" value="38" style="ellipse;whiteSpace=wrap;html=1;aspect=fixed;" parent="1" vertex="1">
                    <mxGeometry x="570" y="480" width="80" height="80" as="geometry"/>
                </mxCell>
                <mxCell id="KGqAEk0XQEjgS2Rpxjzb-36" value="31" style="ellipse;whiteSpace=wrap;html=1;aspect=fixed;" parent="1" vertex="1">
                    <mxGeometry x="650" y="580" width="80" height="80" as="geometry"/>
                </mxCell>
                <mxCell id="KGqAEk0XQEjgS2Rpxjzb-37" value="50" style="ellipse;whiteSpace=wrap;html=1;aspect=fixed;" parent="1" vertex="1">
                    <mxGeometry x="730" y="700" width="80" height="80" as="geometry"/>
                </mxCell>
                <mxCell id="KGqAEk0XQEjgS2Rpxjzb-38" value="2" style="text;html=1;strokeColor=none;fillColor=none;align=center;verticalAlign=middle;whiteSpace=wrap;rounded=0;" parent="1" vertex="1">
                    <mxGeometry x="630" y="450" width="40" height="20" as="geometry"/>
                </mxCell>
                <mxCell id="KGqAEk0XQEjgS2Rpxjzb-39" value="3" style="text;html=1;strokeColor=none;fillColor=none;align=center;verticalAlign=middle;whiteSpace=wrap;rounded=0;" parent="1" vertex="1">
                    <mxGeometry x="710" y="550" width="40" height="20" as="geometry"/>
                </mxCell>
                <mxCell id="KGqAEk0XQEjgS2Rpxjzb-40" value="1" style="text;html=1;strokeColor=none;fillColor=none;align=center;verticalAlign=middle;whiteSpace=wrap;rounded=0;" parent="1" vertex="1">
                    <mxGeometry x="780" y="670" width="40" height="20" as="geometry"/>
                </mxCell>
            </root>
        </mxGraphModel>
    </diagram>
    <diagram id="dyhZxNwXIENs5ZNlzYof" name="left_left">
        &#xa;
        <mxGraphModel dx="414" dy="506" grid="1" gridSize="10" guides="1" tooltips="1" connect="1" arrows="1" fold="1" page="1" pageScale="1" pageWidth="850" pageHeight="1100" math="0" shadow="0">
            &#xa;
            <root>
                &#xa;
                <mxCell id="i_cyc_0Nm1TCkfcsR6E1-0"/>
                &#xa;
                <mxCell id="i_cyc_0Nm1TCkfcsR6E1-1" parent="i_cyc_0Nm1TCkfcsR6E1-0"/>
                &#xa;
                <mxCell id="i_cyc_0Nm1TCkfcsR6E1-2" value="20" style="ellipse;whiteSpace=wrap;html=1;aspect=fixed;" parent="i_cyc_0Nm1TCkfcsR6E1-1" vertex="1">
                    &#xa;
                    <mxGeometry x="250" y="60" width="80" height="80" as="geometry"/>
                    &#xa;
                </mxCell>
                &#xa;
                <mxCell id="i_cyc_0Nm1TCkfcsR6E1-3" value="31" style="ellipse;whiteSpace=wrap;html=1;aspect=fixed;" parent="i_cyc_0Nm1TCkfcsR6E1-1" vertex="1">
                    &#xa;
                    <mxGeometry x="330" y="150" width="80" height="80" as="geometry"/>
                    &#xa;
                </mxCell>
                &#xa;
                <mxCell id="i_cyc_0Nm1TCkfcsR6E1-4" value="15" style="ellipse;whiteSpace=wrap;html=1;aspect=fixed;" parent="i_cyc_0Nm1TCkfcsR6E1-1" vertex="1">
                    &#xa;
                    <mxGeometry x="170" y="140" width="80" height="80" as="geometry"/>
                    &#xa;
                </mxCell>
                &#xa;
                <mxCell id="i_cyc_0Nm1TCkfcsR6E1-5" value="38" style="ellipse;whiteSpace=wrap;html=1;aspect=fixed;" parent="i_cyc_0Nm1TCkfcsR6E1-1" vertex="1">
                    &#xa;
                    <mxGeometry x="380" y="260" width="80" height="80" as="geometry"/>
                    &#xa;
                </mxCell>
                &#xa;
                <mxCell id="i_cyc_0Nm1TCkfcsR6E1-7" value="10" style="ellipse;whiteSpace=wrap;html=1;aspect=fixed;" parent="i_cyc_0Nm1TCkfcsR6E1-1" vertex="1">
                    &#xa;
                    <mxGeometry x="110" y="240" width="80" height="80" as="geometry"/>
                    &#xa;
                </mxCell>
                &#xa;
                <mxCell id="i_cyc_0Nm1TCkfcsR6E1-8" value="50" style="ellipse;whiteSpace=wrap;html=1;aspect=fixed;" parent="i_cyc_0Nm1TCkfcsR6E1-1" vertex="1">
                    &#xa;
                    <mxGeometry x="440" y="380" width="80" height="80" as="geometry"/>
                    &#xa;
                </mxCell>
                &#xa;
            </root>
            &#xa;
        </mxGraphModel>
        &#xa;
    </diagram>
    <diagram id="S-cyjUTqGycNKrRXc7k6" name="right_left">
        &#xa;
        <mxGraphModel dx="330" dy="506" grid="1" gridSize="10" guides="1" tooltips="1" connect="1" arrows="1" fold="1" page="1" pageScale="1" pageWidth="850" pageHeight="1100" math="0" shadow="0">
            &#xa;
            <root>
                &#xa;
                <mxCell id="lZhiURZVm0KwCh_3HClL-0"/>
                &#xa;
                <mxCell id="lZhiURZVm0KwCh_3HClL-1" parent="lZhiURZVm0KwCh_3HClL-0"/>
                &#xa;
                <mxCell id="lZhiURZVm0KwCh_3HClL-11" style="edgeStyle=orthogonalEdgeStyle;rounded=0;orthogonalLoop=1;jettySize=auto;html=1;exitX=0;exitY=1;exitDx=0;exitDy=0;entryX=0.724;entryY=0.056;entryDx=0;entryDy=0;entryPerimeter=0;" parent="lZhiURZVm0KwCh_3HClL-1" source="lZhiURZVm0KwCh_3HClL-2" target="lZhiURZVm0KwCh_3HClL-4" edge="1">
                    &#xa;
                    <mxGeometry relative="1" as="geometry"/>
                    &#xa;
                </mxCell>
                &#xa;
                <mxCell id="lZhiURZVm0KwCh_3HClL-14" style="edgeStyle=orthogonalEdgeStyle;rounded=0;orthogonalLoop=1;jettySize=auto;html=1;exitX=1;exitY=1;exitDx=0;exitDy=0;entryX=0;entryY=0;entryDx=0;entryDy=0;" parent="lZhiURZVm0KwCh_3HClL-1" source="lZhiURZVm0KwCh_3HClL-2" target="lZhiURZVm0KwCh_3HClL-7" edge="1">
                    &#xa;
                    <mxGeometry relative="1" as="geometry"/>
                    &#xa;
                </mxCell>
                &#xa;
                <mxCell id="lZhiURZVm0KwCh_3HClL-2" value="20" style="ellipse;whiteSpace=wrap;html=1;aspect=fixed;" parent="lZhiURZVm0KwCh_3HClL-1" vertex="1">
                    &#xa;
                    <mxGeometry x="260" y="50" width="80" height="80" as="geometry"/>
                    &#xa;
                </mxCell>
                &#xa;
                <mxCell id="lZhiURZVm0KwCh_3HClL-12" style="edgeStyle=orthogonalEdgeStyle;rounded=0;orthogonalLoop=1;jettySize=auto;html=1;exitX=0;exitY=1;exitDx=0;exitDy=0;entryX=0.5;entryY=0;entryDx=0;entryDy=0;" parent="lZhiURZVm0KwCh_3HClL-1" source="lZhiURZVm0KwCh_3HClL-4" target="lZhiURZVm0KwCh_3HClL-5" edge="1">
                    &#xa;
                    <mxGeometry relative="1" as="geometry"/>
                    &#xa;
                </mxCell>
                &#xa;
                <mxCell id="lZhiURZVm0KwCh_3HClL-28" style="edgeStyle=orthogonalEdgeStyle;rounded=0;orthogonalLoop=1;jettySize=auto;html=1;exitX=0.5;exitY=1;exitDx=0;exitDy=0;entryX=0.5;entryY=0;entryDx=0;entryDy=0;" parent="lZhiURZVm0KwCh_3HClL-1" source="lZhiURZVm0KwCh_3HClL-4" target="lZhiURZVm0KwCh_3HClL-6" edge="1">
                    &#xa;
                    <mxGeometry relative="1" as="geometry"/>
                    &#xa;
                </mxCell>
                &#xa;
                <mxCell id="lZhiURZVm0KwCh_3HClL-4" value="10" style="ellipse;whiteSpace=wrap;html=1;aspect=fixed;" parent="lZhiURZVm0KwCh_3HClL-1" vertex="1">
                    &#xa;
                    <mxGeometry x="200" y="130" width="80" height="80" as="geometry"/>
                    &#xa;
                </mxCell>
                &#xa;
                <mxCell id="lZhiURZVm0KwCh_3HClL-5" value="5" style="ellipse;whiteSpace=wrap;html=1;aspect=fixed;" parent="lZhiURZVm0KwCh_3HClL-1" vertex="1">
                    &#xa;
                    <mxGeometry x="90" y="230" width="80" height="80" as="geometry"/>
                    &#xa;
                </mxCell>
                &#xa;
                <mxCell id="lZhiURZVm0KwCh_3HClL-6" value="15" style="ellipse;whiteSpace=wrap;html=1;aspect=fixed;" parent="lZhiURZVm0KwCh_3HClL-1" vertex="1">
                    &#xa;
                    <mxGeometry x="200" y="250" width="80" height="80" as="geometry"/>
                    &#xa;
                </mxCell>
                &#xa;
                <mxCell id="lZhiURZVm0KwCh_3HClL-15" style="edgeStyle=orthogonalEdgeStyle;rounded=0;orthogonalLoop=1;jettySize=auto;html=1;exitX=0;exitY=1;exitDx=0;exitDy=0;entryX=0.68;entryY=0.012;entryDx=0;entryDy=0;entryPerimeter=0;" parent="lZhiURZVm0KwCh_3HClL-1" source="lZhiURZVm0KwCh_3HClL-7" target="lZhiURZVm0KwCh_3HClL-8" edge="1">
                    &#xa;
                    <mxGeometry relative="1" as="geometry"/>
                    &#xa;
                </mxCell>
                &#xa;
                <mxCell id="lZhiURZVm0KwCh_3HClL-16" style="edgeStyle=orthogonalEdgeStyle;rounded=0;orthogonalLoop=1;jettySize=auto;html=1;exitX=1;exitY=1;exitDx=0;exitDy=0;entryX=0;entryY=0;entryDx=0;entryDy=0;" parent="lZhiURZVm0KwCh_3HClL-1" source="lZhiURZVm0KwCh_3HClL-7" target="lZhiURZVm0KwCh_3HClL-9" edge="1">
                    &#xa;
                    <mxGeometry relative="1" as="geometry"/>
                    &#xa;
                </mxCell>
                &#xa;
                <mxCell id="lZhiURZVm0KwCh_3HClL-7" value="38" style="ellipse;whiteSpace=wrap;html=1;aspect=fixed;fillColor=#6a00ff;strokeColor=#3700CC;fontColor=#ffffff;" parent="lZhiURZVm0KwCh_3HClL-1" vertex="1">
                    &#xa;
                    <mxGeometry x="360" y="130" width="80" height="80" as="geometry"/>
                    &#xa;
                </mxCell>
                &#xa;
                <mxCell id="lZhiURZVm0KwCh_3HClL-8" value="31" style="ellipse;whiteSpace=wrap;html=1;aspect=fixed;" parent="lZhiURZVm0KwCh_3HClL-1" vertex="1">
                    &#xa;
                    <mxGeometry x="300" y="230" width="80" height="80" as="geometry"/>
                    &#xa;
                </mxCell>
                &#xa;
                <mxCell id="lZhiURZVm0KwCh_3HClL-17" style="edgeStyle=orthogonalEdgeStyle;rounded=0;orthogonalLoop=1;jettySize=auto;html=1;exitX=0;exitY=1;exitDx=0;exitDy=0;entryX=0.5;entryY=0;entryDx=0;entryDy=0;" parent="lZhiURZVm0KwCh_3HClL-1" source="lZhiURZVm0KwCh_3HClL-9" target="lZhiURZVm0KwCh_3HClL-10" edge="1">
                    &#xa;
                    <mxGeometry relative="1" as="geometry"/>
                    &#xa;
                </mxCell>
                &#xa;
                <mxCell id="lZhiURZVm0KwCh_3HClL-19" style="edgeStyle=orthogonalEdgeStyle;rounded=0;orthogonalLoop=1;jettySize=auto;html=1;exitX=1;exitY=1;exitDx=0;exitDy=0;entryX=0.5;entryY=0;entryDx=0;entryDy=0;" parent="lZhiURZVm0KwCh_3HClL-1" source="lZhiURZVm0KwCh_3HClL-9" target="lZhiURZVm0KwCh_3HClL-18" edge="1">
                    &#xa;
                    <mxGeometry relative="1" as="geometry"/>
                    &#xa;
                </mxCell>
                &#xa;
                <mxCell id="lZhiURZVm0KwCh_3HClL-9" value="60" style="ellipse;whiteSpace=wrap;html=1;aspect=fixed;fillColor=#6a00ff;strokeColor=#3700CC;fontColor=#ffffff;" parent="lZhiURZVm0KwCh_3HClL-1" vertex="1">
                    &#xa;
                    <mxGeometry x="420" y="230" width="80" height="80" as="geometry"/>
                    &#xa;
                </mxCell>
                &#xa;
                <mxCell id="lZhiURZVm0KwCh_3HClL-10" value="50" style="ellipse;whiteSpace=wrap;html=1;aspect=fixed;" parent="lZhiURZVm0KwCh_3HClL-1" vertex="1">
                    &#xa;
                    <mxGeometry x="360" y="340" width="80" height="80" as="geometry"/>
                    &#xa;
                </mxCell>
                &#xa;
                <mxCell id="lZhiURZVm0KwCh_3HClL-21" style="edgeStyle=orthogonalEdgeStyle;rounded=0;orthogonalLoop=1;jettySize=auto;html=1;exitX=0;exitY=1;exitDx=0;exitDy=0;entryX=1;entryY=0;entryDx=0;entryDy=0;" parent="lZhiURZVm0KwCh_3HClL-1" source="lZhiURZVm0KwCh_3HClL-18" target="lZhiURZVm0KwCh_3HClL-20" edge="1">
                    &#xa;
                    <mxGeometry relative="1" as="geometry"/>
                    &#xa;
                </mxCell>
                &#xa;
                <mxCell id="lZhiURZVm0KwCh_3HClL-18" value="70" style="ellipse;whiteSpace=wrap;html=1;aspect=fixed;fillColor=#6a00ff;strokeColor=#3700CC;fontColor=#ffffff;" parent="lZhiURZVm0KwCh_3HClL-1" vertex="1">
                    &#xa;
                    <mxGeometry x="490" y="340" width="80" height="80" as="geometry"/>
                    &#xa;
                </mxCell>
                &#xa;
                <mxCell id="lZhiURZVm0KwCh_3HClL-20" value="65" style="ellipse;whiteSpace=wrap;html=1;aspect=fixed;" parent="lZhiURZVm0KwCh_3HClL-1" vertex="1">
                    &#xa;
                    <mxGeometry x="420" y="460" width="80" height="80" as="geometry"/>
                    &#xa;
                </mxCell>
                &#xa;
                <mxCell id="lZhiURZVm0KwCh_3HClL-22" value="3" style="text;html=1;strokeColor=none;fillColor=none;align=center;verticalAlign=middle;whiteSpace=wrap;rounded=0;" parent="lZhiURZVm0KwCh_3HClL-1" vertex="1">
                    &#xa;
                    <mxGeometry x="470" y="210" width="40" height="20" as="geometry"/>
                    &#xa;
                </mxCell>
                &#xa;
                <mxCell id="lZhiURZVm0KwCh_3HClL-23" value="2" style="text;html=1;strokeColor=none;fillColor=none;align=center;verticalAlign=middle;whiteSpace=wrap;rounded=0;" parent="lZhiURZVm0KwCh_3HClL-1" vertex="1">
                    &#xa;
                    <mxGeometry x="570" y="340" width="40" height="20" as="geometry"/>
                    &#xa;
                </mxCell>
                &#xa;
                <mxCell id="lZhiURZVm0KwCh_3HClL-24" value="1" style="text;html=1;strokeColor=none;fillColor=none;align=center;verticalAlign=middle;whiteSpace=wrap;rounded=0;" parent="lZhiURZVm0KwCh_3HClL-1" vertex="1">
                    &#xa;
                    <mxGeometry x="320" y="330" width="40" height="20" as="geometry"/>
                    &#xa;
                </mxCell>
                &#xa;
                <mxCell id="lZhiURZVm0KwCh_3HClL-25" value="1" style="text;html=1;strokeColor=none;fillColor=none;align=center;verticalAlign=middle;whiteSpace=wrap;rounded=0;" parent="lZhiURZVm0KwCh_3HClL-1" vertex="1">
                    &#xa;
                    <mxGeometry x="300" y="200" width="40" height="20" as="geometry"/>
                    &#xa;
                </mxCell>
                &#xa;
                <mxCell id="lZhiURZVm0KwCh_3HClL-26" value="4" style="text;html=1;strokeColor=none;fillColor=none;align=center;verticalAlign=middle;whiteSpace=wrap;rounded=0;" parent="lZhiURZVm0KwCh_3HClL-1" vertex="1">
                    &#xa;
                    <mxGeometry x="400" y="90" width="40" height="20" as="geometry"/>
                    &#xa;
                </mxCell>
                &#xa;
                <mxCell id="lZhiURZVm0KwCh_3HClL-27" value="1" style="text;html=1;strokeColor=none;fillColor=none;align=center;verticalAlign=middle;whiteSpace=wrap;rounded=0;" parent="lZhiURZVm0KwCh_3HClL-1" vertex="1">
                    &#xa;
                    <mxGeometry x="500" y="510" width="40" height="20" as="geometry"/>
                    &#xa;
                </mxCell>
                &#xa;
                <mxCell id="lZhiURZVm0KwCh_3HClL-29" style="edgeStyle=orthogonalEdgeStyle;rounded=0;orthogonalLoop=1;jettySize=auto;html=1;exitX=0;exitY=1;exitDx=0;exitDy=0;entryX=0.724;entryY=0.056;entryDx=0;entryDy=0;entryPerimeter=0;" parent="lZhiURZVm0KwCh_3HClL-1" source="lZhiURZVm0KwCh_3HClL-31" target="lZhiURZVm0KwCh_3HClL-34" edge="1">
                    &#xa;
                    <mxGeometry relative="1" as="geometry"/>
                    &#xa;
                </mxCell>
                &#xa;
                <mxCell id="lZhiURZVm0KwCh_3HClL-30" style="edgeStyle=orthogonalEdgeStyle;rounded=0;orthogonalLoop=1;jettySize=auto;html=1;exitX=1;exitY=1;exitDx=0;exitDy=0;entryX=0;entryY=0;entryDx=0;entryDy=0;" parent="lZhiURZVm0KwCh_3HClL-1" source="lZhiURZVm0KwCh_3HClL-31" target="lZhiURZVm0KwCh_3HClL-39" edge="1">
                    &#xa;
                    <mxGeometry relative="1" as="geometry"/>
                    &#xa;
                </mxCell>
                &#xa;
                <mxCell id="lZhiURZVm0KwCh_3HClL-31" value="20" style="ellipse;whiteSpace=wrap;html=1;aspect=fixed;" parent="lZhiURZVm0KwCh_3HClL-1" vertex="1">
                    &#xa;
                    <mxGeometry x="850" y="40" width="80" height="80" as="geometry"/>
                    &#xa;
                </mxCell>
                &#xa;
                <mxCell id="lZhiURZVm0KwCh_3HClL-32" style="edgeStyle=orthogonalEdgeStyle;rounded=0;orthogonalLoop=1;jettySize=auto;html=1;exitX=0;exitY=1;exitDx=0;exitDy=0;entryX=0.5;entryY=0;entryDx=0;entryDy=0;" parent="lZhiURZVm0KwCh_3HClL-1" source="lZhiURZVm0KwCh_3HClL-34" target="lZhiURZVm0KwCh_3HClL-35" edge="1">
                    &#xa;
                    <mxGeometry relative="1" as="geometry"/>
                    &#xa;
                </mxCell>
                &#xa;
                <mxCell id="lZhiURZVm0KwCh_3HClL-33" style="edgeStyle=orthogonalEdgeStyle;rounded=0;orthogonalLoop=1;jettySize=auto;html=1;exitX=0.5;exitY=1;exitDx=0;exitDy=0;entryX=0.5;entryY=0;entryDx=0;entryDy=0;" parent="lZhiURZVm0KwCh_3HClL-1" source="lZhiURZVm0KwCh_3HClL-34" target="lZhiURZVm0KwCh_3HClL-36" edge="1">
                    &#xa;
                    <mxGeometry relative="1" as="geometry"/>
                    &#xa;
                </mxCell>
                &#xa;
                <mxCell id="lZhiURZVm0KwCh_3HClL-34" value="10" style="ellipse;whiteSpace=wrap;html=1;aspect=fixed;" parent="lZhiURZVm0KwCh_3HClL-1" vertex="1">
                    &#xa;
                    <mxGeometry x="790" y="120" width="80" height="80" as="geometry"/>
                    &#xa;
                </mxCell>
                &#xa;
                <mxCell id="lZhiURZVm0KwCh_3HClL-35" value="5" style="ellipse;whiteSpace=wrap;html=1;aspect=fixed;" parent="lZhiURZVm0KwCh_3HClL-1" vertex="1">
                    &#xa;
                    <mxGeometry x="680" y="220" width="80" height="80" as="geometry"/>
                    &#xa;
                </mxCell>
                &#xa;
                <mxCell id="lZhiURZVm0KwCh_3HClL-36" value="15" style="ellipse;whiteSpace=wrap;html=1;aspect=fixed;" parent="lZhiURZVm0KwCh_3HClL-1" vertex="1">
                    &#xa;
                    <mxGeometry x="790" y="240" width="80" height="80" as="geometry"/>
                    &#xa;
                </mxCell>
                &#xa;
                <mxCell id="lZhiURZVm0KwCh_3HClL-38" style="edgeStyle=orthogonalEdgeStyle;rounded=0;orthogonalLoop=1;jettySize=auto;html=1;exitX=1;exitY=1;exitDx=0;exitDy=0;entryX=0;entryY=0;entryDx=0;entryDy=0;" parent="lZhiURZVm0KwCh_3HClL-1" source="lZhiURZVm0KwCh_3HClL-39" target="lZhiURZVm0KwCh_3HClL-43" edge="1">
                    &#xa;
                    <mxGeometry relative="1" as="geometry"/>
                    &#xa;
                </mxCell>
                &#xa;
                <mxCell id="lZhiURZVm0KwCh_3HClL-55" style="edgeStyle=orthogonalEdgeStyle;rounded=0;orthogonalLoop=1;jettySize=auto;html=1;exitX=1;exitY=0.5;exitDx=0;exitDy=0;entryX=0.5;entryY=0;entryDx=0;entryDy=0;" parent="lZhiURZVm0KwCh_3HClL-1" source="lZhiURZVm0KwCh_3HClL-39" target="lZhiURZVm0KwCh_3HClL-46" edge="1">
                    &#xa;
                    <mxGeometry relative="1" as="geometry"/>
                    &#xa;
                </mxCell>
                &#xa;
                <mxCell id="lZhiURZVm0KwCh_3HClL-39" value="60" style="ellipse;whiteSpace=wrap;html=1;aspect=fixed;fillColor=#6a00ff;strokeColor=#3700CC;fontColor=#ffffff;" parent="lZhiURZVm0KwCh_3HClL-1" vertex="1">
                    &#xa;
                    <mxGeometry x="950" y="120" width="80" height="80" as="geometry"/>
                    &#xa;
                </mxCell>
                &#xa;
                <mxCell id="lZhiURZVm0KwCh_3HClL-40" value="31" style="ellipse;whiteSpace=wrap;html=1;aspect=fixed;" parent="lZhiURZVm0KwCh_3HClL-1" vertex="1">
                    &#xa;
                    <mxGeometry x="790" y="330" width="80" height="80" as="geometry"/>
                    &#xa;
                </mxCell>
                &#xa;
                <mxCell id="lZhiURZVm0KwCh_3HClL-41" style="edgeStyle=orthogonalEdgeStyle;rounded=0;orthogonalLoop=1;jettySize=auto;html=1;exitX=0;exitY=1;exitDx=0;exitDy=0;entryX=0.5;entryY=0;entryDx=0;entryDy=0;" parent="lZhiURZVm0KwCh_3HClL-1" source="lZhiURZVm0KwCh_3HClL-43" target="lZhiURZVm0KwCh_3HClL-44" edge="1">
                    &#xa;
                    <mxGeometry relative="1" as="geometry"/>
                    &#xa;
                </mxCell>
                &#xa;
                <mxCell id="lZhiURZVm0KwCh_3HClL-54" style="edgeStyle=orthogonalEdgeStyle;rounded=0;orthogonalLoop=1;jettySize=auto;html=1;exitX=0;exitY=0.5;exitDx=0;exitDy=0;entryX=0.995;entryY=0.387;entryDx=0;entryDy=0;entryPerimeter=0;" parent="lZhiURZVm0KwCh_3HClL-1" source="lZhiURZVm0KwCh_3HClL-43" target="lZhiURZVm0KwCh_3HClL-40" edge="1">
                    &#xa;
                    <mxGeometry relative="1" as="geometry"/>
                    &#xa;
                </mxCell>
                &#xa;
                <mxCell id="lZhiURZVm0KwCh_3HClL-43" value="38" style="ellipse;whiteSpace=wrap;html=1;aspect=fixed;fillColor=#6a00ff;strokeColor=#3700CC;fontColor=#ffffff;" parent="lZhiURZVm0KwCh_3HClL-1" vertex="1">
                    &#xa;
                    <mxGeometry x="915" y="260" width="80" height="80" as="geometry"/>
                    &#xa;
                </mxCell>
                &#xa;
                <mxCell id="lZhiURZVm0KwCh_3HClL-44" value="50" style="ellipse;whiteSpace=wrap;html=1;aspect=fixed;" parent="lZhiURZVm0KwCh_3HClL-1" vertex="1">
                    &#xa;
                    <mxGeometry x="930" y="380" width="80" height="80" as="geometry"/>
                    &#xa;
                </mxCell>
                &#xa;
                <mxCell id="lZhiURZVm0KwCh_3HClL-45" style="edgeStyle=orthogonalEdgeStyle;rounded=0;orthogonalLoop=1;jettySize=auto;html=1;exitX=0;exitY=1;exitDx=0;exitDy=0;entryX=1;entryY=0;entryDx=0;entryDy=0;" parent="lZhiURZVm0KwCh_3HClL-1" source="lZhiURZVm0KwCh_3HClL-46" target="lZhiURZVm0KwCh_3HClL-47" edge="1">
                    &#xa;
                    <mxGeometry relative="1" as="geometry"/>
                    &#xa;
                </mxCell>
                &#xa;
                <mxCell id="lZhiURZVm0KwCh_3HClL-46" value="70" style="ellipse;whiteSpace=wrap;html=1;aspect=fixed;fillColor=#6a00ff;strokeColor=#3700CC;fontColor=#ffffff;" parent="lZhiURZVm0KwCh_3HClL-1" vertex="1">
                    &#xa;
                    <mxGeometry x="1080" y="240" width="80" height="80" as="geometry"/>
                    &#xa;
                </mxCell>
                &#xa;
                <mxCell id="lZhiURZVm0KwCh_3HClL-47" value="65" style="ellipse;whiteSpace=wrap;html=1;aspect=fixed;" parent="lZhiURZVm0KwCh_3HClL-1" vertex="1">
                    &#xa;
                    <mxGeometry x="1020" y="390" width="80" height="80" as="geometry"/>
                    &#xa;
                </mxCell>
                &#xa;
                <mxCell id="lZhiURZVm0KwCh_3HClL-48" value="3" style="text;html=1;strokeColor=none;fillColor=none;align=center;verticalAlign=middle;whiteSpace=wrap;rounded=0;" parent="lZhiURZVm0KwCh_3HClL-1" vertex="1">
                    &#xa;
                    <mxGeometry x="990" y="260" width="40" height="20" as="geometry"/>
                    &#xa;
                </mxCell>
                &#xa;
                <mxCell id="lZhiURZVm0KwCh_3HClL-49" value="2" style="text;html=1;strokeColor=none;fillColor=none;align=center;verticalAlign=middle;whiteSpace=wrap;rounded=0;" parent="lZhiURZVm0KwCh_3HClL-1" vertex="1">
                    &#xa;
                    <mxGeometry x="1160" y="260" width="40" height="20" as="geometry"/>
                    &#xa;
                </mxCell>
                &#xa;
                <mxCell id="lZhiURZVm0KwCh_3HClL-50" value="1" style="text;html=1;strokeColor=none;fillColor=none;align=center;verticalAlign=middle;whiteSpace=wrap;rounded=0;" parent="lZhiURZVm0KwCh_3HClL-1" vertex="1">
                    &#xa;
                    <mxGeometry x="790" y="410" width="40" height="20" as="geometry"/>
                    &#xa;
                </mxCell>
                &#xa;
                <mxCell id="lZhiURZVm0KwCh_3HClL-51" value="1" style="text;html=1;strokeColor=none;fillColor=none;align=center;verticalAlign=middle;whiteSpace=wrap;rounded=0;" parent="lZhiURZVm0KwCh_3HClL-1" vertex="1">
                    &#xa;
                    <mxGeometry x="890" y="190" width="40" height="20" as="geometry"/>
                    &#xa;
                </mxCell>
                &#xa;
                <mxCell id="lZhiURZVm0KwCh_3HClL-52" value="4" style="text;html=1;strokeColor=none;fillColor=none;align=center;verticalAlign=middle;whiteSpace=wrap;rounded=0;" parent="lZhiURZVm0KwCh_3HClL-1" vertex="1">
                    &#xa;
                    <mxGeometry x="990" y="80" width="40" height="20" as="geometry"/>
                    &#xa;
                </mxCell>
                &#xa;
                <mxCell id="lZhiURZVm0KwCh_3HClL-53" value="1" style="text;html=1;strokeColor=none;fillColor=none;align=center;verticalAlign=middle;whiteSpace=wrap;rounded=0;" parent="lZhiURZVm0KwCh_3HClL-1" vertex="1">
                    &#xa;
                    <mxGeometry x="1100" y="450" width="40" height="20" as="geometry"/>
                    &#xa;
                </mxCell>
                &#xa;
            </root>
            &#xa;
        </mxGraphModel>
        &#xa;
    </diagram>
    <diagram id="Fga-A-z22RsJA3sXPmXl" name="Page-4">
        <mxGraphModel dx="912" dy="402" grid="1" gridSize="10" guides="1" tooltips="1" connect="1" arrows="1" fold="1" page="1" pageScale="1" pageWidth="850" pageHeight="1100" math="0" shadow="0">
            <root>
                <mxCell id="3NyiuBMymGdXNXhDzvGA-0"/>
                <mxCell id="3NyiuBMymGdXNXhDzvGA-1" parent="3NyiuBMymGdXNXhDzvGA-0"/>
                <mxCell id="3NyiuBMymGdXNXhDzvGA-5" style="edgeStyle=orthogonalEdgeStyle;rounded=0;orthogonalLoop=1;jettySize=auto;html=1;exitX=1;exitY=1;exitDx=0;exitDy=0;entryX=0;entryY=0;entryDx=0;entryDy=0;" parent="3NyiuBMymGdXNXhDzvGA-1" source="3NyiuBMymGdXNXhDzvGA-2" target="3NyiuBMymGdXNXhDzvGA-3" edge="1">
                    <mxGeometry relative="1" as="geometry"/>
                </mxCell>
                <mxCell id="3NyiuBMymGdXNXhDzvGA-2" value="1" style="ellipse;whiteSpace=wrap;html=1;aspect=fixed;" parent="3NyiuBMymGdXNXhDzvGA-1" vertex="1">
                    <mxGeometry x="70" y="50" width="80" height="80" as="geometry"/>
                </mxCell>
                <mxCell id="3NyiuBMymGdXNXhDzvGA-6" style="edgeStyle=orthogonalEdgeStyle;rounded=0;orthogonalLoop=1;jettySize=auto;html=1;exitX=0;exitY=1;exitDx=0;exitDy=0;entryX=1;entryY=0;entryDx=0;entryDy=0;" parent="3NyiuBMymGdXNXhDzvGA-1" source="3NyiuBMymGdXNXhDzvGA-3" target="3NyiuBMymGdXNXhDzvGA-4" edge="1">
                    <mxGeometry relative="1" as="geometry"/>
                </mxCell>
                <mxCell id="3NyiuBMymGdXNXhDzvGA-3" value="3" style="ellipse;whiteSpace=wrap;html=1;aspect=fixed;" parent="3NyiuBMymGdXNXhDzvGA-1" vertex="1">
                    <mxGeometry x="170" y="150" width="80" height="80" as="geometry"/>
                </mxCell>
                <mxCell id="3NyiuBMymGdXNXhDzvGA-4" value="2" style="ellipse;whiteSpace=wrap;html=1;aspect=fixed;" parent="3NyiuBMymGdXNXhDzvGA-1" vertex="1">
                    <mxGeometry x="80" y="250" width="80" height="80" as="geometry"/>
                </mxCell>
                <mxCell id="3NyiuBMymGdXNXhDzvGA-8" style="edgeStyle=orthogonalEdgeStyle;rounded=0;orthogonalLoop=1;jettySize=auto;html=1;exitX=1;exitY=1;exitDx=0;exitDy=0;entryX=0;entryY=0;entryDx=0;entryDy=0;" parent="3NyiuBMymGdXNXhDzvGA-1" source="3NyiuBMymGdXNXhDzvGA-9" target="3NyiuBMymGdXNXhDzvGA-11" edge="1">
                    <mxGeometry relative="1" as="geometry"/>
                </mxCell>
                <mxCell id="3NyiuBMymGdXNXhDzvGA-9" value="2" style="ellipse;whiteSpace=wrap;html=1;aspect=fixed;" parent="3NyiuBMymGdXNXhDzvGA-1" vertex="1">
                    <mxGeometry x="330" y="50" width="80" height="80" as="geometry"/>
                </mxCell>
                <mxCell id="3NyiuBMymGdXNXhDzvGA-10" style="edgeStyle=orthogonalEdgeStyle;rounded=0;orthogonalLoop=1;jettySize=auto;html=1;exitX=0;exitY=1;exitDx=0;exitDy=0;entryX=1;entryY=0;entryDx=0;entryDy=0;" parent="3NyiuBMymGdXNXhDzvGA-1" source="3NyiuBMymGdXNXhDzvGA-11" target="3NyiuBMymGdXNXhDzvGA-12" edge="1">
                    <mxGeometry relative="1" as="geometry"/>
                </mxCell>
                <mxCell id="3NyiuBMymGdXNXhDzvGA-11" value="3" style="ellipse;whiteSpace=wrap;html=1;aspect=fixed;" parent="3NyiuBMymGdXNXhDzvGA-1" vertex="1">
                    <mxGeometry x="430" y="150" width="80" height="80" as="geometry"/>
                </mxCell>
                <mxCell id="3NyiuBMymGdXNXhDzvGA-12" value="1" style="ellipse;whiteSpace=wrap;html=1;aspect=fixed;" parent="3NyiuBMymGdXNXhDzvGA-1" vertex="1">
                    <mxGeometry x="340" y="250" width="80" height="80" as="geometry"/>
                </mxCell>
                <mxCell id="3NyiuBMymGdXNXhDzvGA-13" value="" style="shape=flexArrow;endArrow=classic;html=1;exitX=0.5;exitY=1;exitDx=0;exitDy=0;entryX=0;entryY=0;entryDx=0;entryDy=0;" parent="3NyiuBMymGdXNXhDzvGA-1" source="3NyiuBMymGdXNXhDzvGA-9" target="3NyiuBMymGdXNXhDzvGA-12" edge="1">
                    <mxGeometry width="50" height="50" relative="1" as="geometry">
                        <mxPoint x="360" y="150" as="sourcePoint"/>
                        <mxPoint x="350" y="240" as="targetPoint"/>
                    </mxGeometry>
                </mxCell>
                <mxCell id="3NyiuBMymGdXNXhDzvGA-14" value="3" style="text;html=1;strokeColor=none;fillColor=none;align=center;verticalAlign=middle;whiteSpace=wrap;rounded=0;" parent="3NyiuBMymGdXNXhDzvGA-1" vertex="1">
                    <mxGeometry x="140" y="30" width="40" height="20" as="geometry"/>
                </mxCell>
                <mxCell id="3NyiuBMymGdXNXhDzvGA-17" style="edgeStyle=orthogonalEdgeStyle;rounded=0;orthogonalLoop=1;jettySize=auto;html=1;exitX=1;exitY=1;exitDx=0;exitDy=0;" parent="3NyiuBMymGdXNXhDzvGA-1" edge="1">
                    <mxGeometry relative="1" as="geometry">
                        <mxPoint x="230" y="130" as="targetPoint"/>
                    </mxGeometry>
                </mxCell>
                <mxCell id="3NyiuBMymGdXNXhDzvGA-18" value="2" style="text;html=1;strokeColor=none;fillColor=none;align=center;verticalAlign=middle;whiteSpace=wrap;rounded=0;" parent="3NyiuBMymGdXNXhDzvGA-1" vertex="1">
                    <mxGeometry x="210" y="130" width="40" height="20" as="geometry"/>
                </mxCell>
                <mxCell id="3NyiuBMymGdXNXhDzvGA-19" value="1" style="text;html=1;strokeColor=none;fillColor=none;align=center;verticalAlign=middle;whiteSpace=wrap;rounded=0;" parent="3NyiuBMymGdXNXhDzvGA-1" vertex="1">
                    <mxGeometry x="130" y="330" width="40" height="20" as="geometry"/>
                </mxCell>
                <mxCell id="3NyiuBMymGdXNXhDzvGA-20" value="1" style="text;html=1;strokeColor=none;fillColor=none;align=center;verticalAlign=middle;whiteSpace=wrap;rounded=0;" parent="3NyiuBMymGdXNXhDzvGA-1" vertex="1">
                    <mxGeometry x="350" y="340" width="40" height="20" as="geometry"/>
                </mxCell>
                <mxCell id="3NyiuBMymGdXNXhDzvGA-21" value="3" style="text;html=1;strokeColor=none;fillColor=none;align=center;verticalAlign=middle;whiteSpace=wrap;rounded=0;" parent="3NyiuBMymGdXNXhDzvGA-1" vertex="1">
                    <mxGeometry x="370" y="20" width="40" height="20" as="geometry"/>
                </mxCell>
                <mxCell id="3NyiuBMymGdXNXhDzvGA-23" value="2" style="text;html=1;strokeColor=none;fillColor=none;align=center;verticalAlign=middle;whiteSpace=wrap;rounded=0;" parent="3NyiuBMymGdXNXhDzvGA-1" vertex="1">
                    <mxGeometry x="470" y="130" width="40" height="20" as="geometry"/>
                </mxCell>
                <mxCell id="3NyiuBMymGdXNXhDzvGA-25" value="" style="endArrow=none;dashed=1;html=1;dashPattern=1 3;strokeWidth=2;" parent="3NyiuBMymGdXNXhDzvGA-1" edge="1">
                    <mxGeometry width="50" height="50" relative="1" as="geometry">
                        <mxPoint x="390" y="200" as="sourcePoint"/>
                        <mxPoint x="450" y="250" as="targetPoint"/>
                    </mxGeometry>
                </mxCell>
            </root>
        </mxGraphModel>
    </diagram>
    <diagram id="XydyY-Laa8pTy7i0w4ar" name="Page-5">
        <mxGraphModel dx="912" dy="402" grid="1" gridSize="10" guides="1" tooltips="1" connect="1" arrows="1" fold="1" page="1" pageScale="1" pageWidth="850" pageHeight="1100" math="0" shadow="0">
            <root>
                <mxCell id="ZD6A8V8dVhNlw1yoDM6E-0"/>
                <mxCell id="ZD6A8V8dVhNlw1yoDM6E-1" parent="ZD6A8V8dVhNlw1yoDM6E-0"/>
                <mxCell id="ZD6A8V8dVhNlw1yoDM6E-5" style="edgeStyle=orthogonalEdgeStyle;rounded=0;orthogonalLoop=1;jettySize=auto;html=1;exitX=1;exitY=1;exitDx=0;exitDy=0;entryX=0;entryY=0;entryDx=0;entryDy=0;" parent="ZD6A8V8dVhNlw1yoDM6E-1" source="ZD6A8V8dVhNlw1yoDM6E-2" target="ZD6A8V8dVhNlw1yoDM6E-3" edge="1">
                    <mxGeometry relative="1" as="geometry"/>
                </mxCell>
                <mxCell id="ZD6A8V8dVhNlw1yoDM6E-2" value="1" style="ellipse;whiteSpace=wrap;html=1;aspect=fixed;" parent="ZD6A8V8dVhNlw1yoDM6E-1" vertex="1">
                    <mxGeometry x="80" y="50" width="80" height="80" as="geometry"/>
                </mxCell>
                <mxCell id="ZD6A8V8dVhNlw1yoDM6E-6" style="edgeStyle=orthogonalEdgeStyle;rounded=0;orthogonalLoop=1;jettySize=auto;html=1;exitX=0;exitY=1;exitDx=0;exitDy=0;entryX=1;entryY=0;entryDx=0;entryDy=0;" parent="ZD6A8V8dVhNlw1yoDM6E-1" source="ZD6A8V8dVhNlw1yoDM6E-3" target="ZD6A8V8dVhNlw1yoDM6E-4" edge="1">
                    <mxGeometry relative="1" as="geometry"/>
                </mxCell>
                <mxCell id="ZD6A8V8dVhNlw1yoDM6E-3" value="3" style="ellipse;whiteSpace=wrap;html=1;aspect=fixed;" parent="ZD6A8V8dVhNlw1yoDM6E-1" vertex="1">
                    <mxGeometry x="190" y="160" width="80" height="80" as="geometry"/>
                </mxCell>
                <mxCell id="ZD6A8V8dVhNlw1yoDM6E-4" value="2" style="ellipse;whiteSpace=wrap;html=1;aspect=fixed;" parent="ZD6A8V8dVhNlw1yoDM6E-1" vertex="1">
                    <mxGeometry x="70" y="280" width="80" height="80" as="geometry"/>
                </mxCell>
                <mxCell id="ZD6A8V8dVhNlw1yoDM6E-10" value="3" style="text;html=1;strokeColor=none;fillColor=none;align=center;verticalAlign=middle;whiteSpace=wrap;rounded=0;" parent="ZD6A8V8dVhNlw1yoDM6E-1" vertex="1">
                    <mxGeometry x="100" y="20" width="40" height="20" as="geometry"/>
                </mxCell>
                <mxCell id="ZD6A8V8dVhNlw1yoDM6E-11" value="2" style="text;html=1;strokeColor=none;fillColor=none;align=center;verticalAlign=middle;whiteSpace=wrap;rounded=0;" parent="ZD6A8V8dVhNlw1yoDM6E-1" vertex="1">
                    <mxGeometry x="210" y="140" width="40" height="20" as="geometry"/>
                </mxCell>
                <mxCell id="ZD6A8V8dVhNlw1yoDM6E-12" value="1" style="text;html=1;strokeColor=none;fillColor=none;align=center;verticalAlign=middle;whiteSpace=wrap;rounded=0;" parent="ZD6A8V8dVhNlw1yoDM6E-1" vertex="1">
                    <mxGeometry x="100" y="240" width="40" height="20" as="geometry"/>
                </mxCell>
                <mxCell id="ZD6A8V8dVhNlw1yoDM6E-15" style="edgeStyle=orthogonalEdgeStyle;rounded=0;orthogonalLoop=1;jettySize=auto;html=1;exitX=1;exitY=1;exitDx=0;exitDy=0;entryX=0;entryY=0;entryDx=0;entryDy=0;" parent="ZD6A8V8dVhNlw1yoDM6E-1" source="ZD6A8V8dVhNlw1yoDM6E-16" target="ZD6A8V8dVhNlw1yoDM6E-18" edge="1">
                    <mxGeometry relative="1" as="geometry"/>
                </mxCell>
                <mxCell id="ZD6A8V8dVhNlw1yoDM6E-16" value="1" style="ellipse;whiteSpace=wrap;html=1;aspect=fixed;" parent="ZD6A8V8dVhNlw1yoDM6E-1" vertex="1">
                    <mxGeometry x="350" y="50" width="80" height="80" as="geometry"/>
                </mxCell>
                <mxCell id="ZD6A8V8dVhNlw1yoDM6E-17" style="edgeStyle=orthogonalEdgeStyle;rounded=0;orthogonalLoop=1;jettySize=auto;html=1;exitX=0;exitY=1;exitDx=0;exitDy=0;entryX=1;entryY=0;entryDx=0;entryDy=0;" parent="ZD6A8V8dVhNlw1yoDM6E-1" source="ZD6A8V8dVhNlw1yoDM6E-18" target="ZD6A8V8dVhNlw1yoDM6E-19" edge="1">
                    <mxGeometry relative="1" as="geometry"/>
                </mxCell>
                <mxCell id="ZD6A8V8dVhNlw1yoDM6E-18" value="2" style="ellipse;whiteSpace=wrap;html=1;aspect=fixed;" parent="ZD6A8V8dVhNlw1yoDM6E-1" vertex="1">
                    <mxGeometry x="460" y="160" width="80" height="80" as="geometry"/>
                </mxCell>
                <mxCell id="ZD6A8V8dVhNlw1yoDM6E-19" value="3" style="ellipse;whiteSpace=wrap;html=1;aspect=fixed;" parent="ZD6A8V8dVhNlw1yoDM6E-1" vertex="1">
                    <mxGeometry x="550" y="280" width="80" height="80" as="geometry"/>
                </mxCell>
                <mxCell id="ZD6A8V8dVhNlw1yoDM6E-20" value="3" style="text;html=1;strokeColor=none;fillColor=none;align=center;verticalAlign=middle;whiteSpace=wrap;rounded=0;" parent="ZD6A8V8dVhNlw1yoDM6E-1" vertex="1">
                    <mxGeometry x="370" y="20" width="40" height="20" as="geometry"/>
                </mxCell>
                <mxCell id="ZD6A8V8dVhNlw1yoDM6E-21" value="2" style="text;html=1;strokeColor=none;fillColor=none;align=center;verticalAlign=middle;whiteSpace=wrap;rounded=0;" parent="ZD6A8V8dVhNlw1yoDM6E-1" vertex="1">
                    <mxGeometry x="480" y="140" width="40" height="20" as="geometry"/>
                </mxCell>
                <mxCell id="ZD6A8V8dVhNlw1yoDM6E-22" value="1" style="text;html=1;strokeColor=none;fillColor=none;align=center;verticalAlign=middle;whiteSpace=wrap;rounded=0;" parent="ZD6A8V8dVhNlw1yoDM6E-1" vertex="1">
                    <mxGeometry x="570" y="370" width="40" height="20" as="geometry"/>
                </mxCell>
            </root>
        </mxGraphModel>
    </diagram>
</mxfile>